<svg width="592" height="588" viewBox="0 0 592 588" fill="none" xmlns="http://www.w3.org/2000/svg">
<path d="M646.933 796.35C575.816 832.682 494.189 843.186 415.96 826.073C337.732 808.959 267.742 765.287 217.917 702.498C168.092 639.707 141.513 561.685 142.71 481.724C143.908 401.764 172.805 324.811 224.482 263.98C276.159 203.149 347.415 162.202 426.111 148.116C504.806 134.03 586.071 147.678 656.06 186.732C726.048 225.787 780.43 287.832 809.938 362.297C839.446 436.762 842.255 519.039 817.887 595.109L665.468 545.729C678.56 504.859 677.05 460.655 661.196 420.647C645.343 380.639 616.125 347.304 578.523 326.321C540.92 305.338 497.258 298.006 454.978 305.574C412.696 313.141 374.412 335.141 346.648 367.824C318.884 400.507 303.358 441.851 302.715 484.812C302.072 527.772 316.352 569.691 343.121 603.427C369.891 637.162 407.495 660.625 449.525 669.82C491.554 679.015 535.409 673.371 573.619 653.851L646.933 796.35Z" fill="#00B377"/>
<path d="M550.466 420.399C512.75 386.022 454.428 388.596 420.201 426.147C385.973 463.699 388.801 522.009 426.517 556.386C464.232 590.763 522.554 588.189 556.782 550.638C591.009 513.086 588.181 454.776 550.466 420.399Z" fill="#00B377"/>
</svg>
