<svg width="32" height="32" viewBox="0 0 32 32" fill="none" xmlns="http://www.w3.org/2000/svg">
<circle cx="16" cy="16" r="16" fill="#E3F3FF"/>
<path d="M18.5 16C18.5 16.663 18.2366 17.2989 17.7678 17.7678C17.2989 18.2366 16.663 18.5 16 18.5C15.337 18.5 14.7011 18.2366 14.2322 17.7678C13.7634 17.2989 13.5 16.663 13.5 16C13.5 15.337 13.7634 14.7011 14.2322 14.2322C14.7011 13.7634 15.337 13.5 16 13.5C16.663 13.5 17.2989 13.7634 17.7678 14.2322C18.2366 14.7011 18.5 15.337 18.5 16Z" stroke="#2986CE" stroke-width="1.5" stroke-linecap="round" stroke-linejoin="round"/>
<path d="M7.6665 15.9993C8.99984 12.5852 12.1132 10.166 15.9998 10.166C19.8865 10.166 22.9998 12.5852 24.3332 15.9993C22.9998 19.4135 19.8865 21.8327 15.9998 21.8327C12.1132 21.8327 8.99984 19.4135 7.6665 15.9993Z" stroke="#2986CE" stroke-width="1.5" stroke-linecap="round" stroke-linejoin="round"/>
</svg>
