<svg width="18" height="18" viewBox="0 0 18 18" fill="none" xmlns="http://www.w3.org/2000/svg">
<path d="M11.0893 2.73227C11.274 2.73227 11.4511 2.80564 11.5817 2.93625C11.7123 3.06685 11.7857 3.24399 11.7857 3.4287H13.1786C13.3633 3.4287 13.5404 3.50207 13.671 3.63268C13.8016 3.76328 13.875 3.94042 13.875 4.12513C13.875 4.30983 13.8016 4.48697 13.671 4.61758C13.5404 4.74818 13.3633 4.82155 13.1786 4.82155H4.82143C4.63672 4.82155 4.45959 4.74818 4.32898 4.61758C4.19837 4.48697 4.125 4.30983 4.125 4.12513C4.125 3.94042 4.19837 3.76328 4.32898 3.63268C4.45959 3.50207 4.63672 3.4287 4.82143 3.4287H6.21429C6.21429 3.24399 6.28766 3.06685 6.41827 2.93625C6.54887 2.80564 6.72601 2.73227 6.91071 2.73227H11.0893Z" fill="white"/>
<path fill-rule="evenodd" clip-rule="evenodd" d="M4.82129 5.51799H13.1784V13.8751C13.1784 14.2445 13.0317 14.5988 12.7705 14.86C12.5093 15.1212 12.155 15.268 11.7856 15.268H6.21415C5.84474 15.268 5.49046 15.1212 5.22925 14.86C4.96804 14.5988 4.82129 14.2445 4.82129 13.8751V5.51799ZM7.25879 6.91085C7.16644 6.91085 7.07787 6.94753 7.01256 7.01284C6.94726 7.07814 6.91057 7.16671 6.91057 7.25906V13.5269C6.91057 13.6193 6.94726 13.7078 7.01256 13.7731C7.07787 13.8384 7.16644 13.8751 7.25879 13.8751C7.35114 13.8751 7.43971 13.8384 7.50501 13.7731C7.57032 13.7078 7.607 13.6193 7.607 13.5269V7.25906C7.607 7.16671 7.57032 7.07814 7.50501 7.01284C7.43971 6.94753 7.35114 6.91085 7.25879 6.91085ZM10.7409 6.91085C10.6486 6.91085 10.56 6.94753 10.4947 7.01284C10.4294 7.07814 10.3927 7.16671 10.3927 7.25906V13.5269C10.3927 13.6193 10.4294 13.7078 10.4947 13.7731C10.56 13.8384 10.6486 13.8751 10.7409 13.8751C10.8333 13.8751 10.9219 13.8384 10.9872 13.7731C11.0525 13.7078 11.0891 13.6193 11.0891 13.5269V7.25906C11.0891 7.16671 11.0525 7.07814 10.9872 7.01284C10.9219 6.94753 10.8333 6.91085 10.7409 6.91085Z" fill="white"/>
</svg>
