<svg width="23" height="23" viewBox="0 0 23 23" fill="none" xmlns="http://www.w3.org/2000/svg">
<path d="M10.4285 3.42773H3.42847C2.89803 3.42773 2.38933 3.63845 2.01425 4.01352C1.63918 4.38859 1.42847 4.8973 1.42847 5.42773V19.4277C1.42847 19.9582 1.63918 20.4669 2.01425 20.8419C2.38933 21.217 2.89803 21.4277 3.42847 21.4277H17.4285C17.9589 21.4277 18.4676 21.217 18.8427 20.8419C19.2178 20.4669 19.4285 19.9582 19.4285 19.4277V12.4277" stroke="black" stroke-width="2" stroke-linecap="round" stroke-linejoin="round"/>
<path d="M17.9285 1.92796C18.3263 1.53014 18.8659 1.30664 19.4285 1.30664C19.9911 1.30664 20.5306 1.53014 20.9285 1.92796C21.3263 2.32579 21.5498 2.86535 21.5498 3.42796C21.5498 3.99057 21.3263 4.53014 20.9285 4.92796L11.4285 14.428L7.42847 15.428L8.42847 11.428L17.9285 1.92796Z" stroke="black" stroke-width="2" stroke-linecap="round" stroke-linejoin="round"/>
</svg>
